<svg width="120" height="32" viewBox="0 0 120 32" fill="none" xmlns="http://www.w3.org/2000/svg">
<path d="M65.5448 15.2972C65.4687 14.3419 65.1181 13.4996 64.5019 12.7932C63.8981 12.101 63.0447 11.5642 61.9628 11.2004C60.911 10.8455 59.266 10.6654 57.7875 10.6654C56.3993 10.6654 55.1811 10.8508 54.1648 11.2163C53.1201 11.5924 52.3038 12.1399 51.7336 12.8462C51.1511 13.5702 50.8554 14.4372 50.8554 15.4243V15.4385C50.8554 16.2508 51.0555 16.8299 51.4503 17.4303C51.8416 18.0237 52.4224 18.5093 53.1803 18.8748C53.908 19.2262 54.827 19.4752 55.9124 19.6147L59.6946 20.0191C60.8597 20.1639 61.3891 20.3917 61.6281 20.5559C61.9167 20.7537 62.0513 21.1669 62.0513 21.5642V21.5783C62.0513 21.9174 61.9415 22.1893 61.7078 22.4295C61.4511 22.6926 61.0509 22.8992 60.5144 23.0457C59.9407 23.2011 59.2236 23.2806 58.3843 23.2806C56.9766 23.2806 56.2471 23.1058 55.5034 22.7597C54.8199 22.4418 54.4233 22.0021 54.2887 21.4123L54.2126 21.0927H50.3897L50.4464 21.5642C50.5703 22.5619 50.9687 23.1817 51.6345 23.8898C52.2861 24.5838 53.1909 25.1153 54.3259 25.4738C55.2944 25.7793 56.4507 25.9523 57.7681 25.9912C57.954 25.9965 58.1417 26 58.3329 26C58.5135 26 59.0518 25.9965 59.2253 25.9912C60.4683 25.9506 61.5644 25.7669 62.4869 25.4438C63.5688 25.0641 64.4205 24.5061 65.0154 23.7821C65.6263 23.0404 65.9362 22.403 65.9362 21.4053V21.3911C65.9362 20.1392 65.5183 19.3057 64.6967 18.6117C63.9123 17.9513 62.6374 17.501 60.9057 17.2749L56.8544 16.8564C56.2471 16.7893 55.753 16.6816 55.3883 16.5386C55.0607 16.4097 54.827 16.2543 54.6889 16.0759C54.5596 15.9064 54.4994 15.5621 54.4994 15.3219V15.3078C54.4994 14.9758 54.6021 14.5591 54.8217 14.326C55.0607 14.0717 55.4361 13.8704 55.9337 13.7256C56.4666 13.5702 57.0208 13.4925 57.8141 13.4925C59.0536 13.4925 60.0452 13.6744 60.7587 14.0346C61.4192 14.3666 61.7662 14.9352 61.8495 15.495L61.9008 15.8199H65.582L65.5431 15.3007L65.5448 15.2972Z" fill="white"/>
<path d="M82.5486 15.2972C82.4724 14.3419 82.1218 13.4996 81.5057 12.7932C80.9019 12.101 80.0484 11.5642 78.9665 11.2004C77.9147 10.8455 76.2698 10.6654 74.7913 10.6654C73.4031 10.6654 72.1848 10.8508 71.1685 11.2163C70.1238 11.5924 69.3075 12.1399 68.7374 12.8462C68.1548 13.5702 67.8591 14.4372 67.8591 15.4243V15.4385C67.8591 16.2508 68.0592 16.8299 68.4541 17.4303C68.8454 18.0237 69.4261 18.5093 70.184 18.8748C70.9117 19.2262 71.8307 19.4752 72.9161 19.6147L76.6983 20.0191C77.8634 20.1639 78.3928 20.3917 78.6319 20.5559C78.9205 20.7537 79.055 21.1669 79.055 21.5642V21.5783C79.055 21.9174 78.9453 22.1893 78.7115 22.4295C78.4548 22.6926 78.0546 22.8992 77.5181 23.0457C76.9444 23.2011 76.2273 23.2806 75.388 23.2806C73.9803 23.2806 73.2508 23.1058 72.5071 22.7597C71.8236 22.4418 71.427 22.0021 71.2924 21.4123L71.2163 21.0927H67.3934L67.4501 21.5642C67.574 22.5619 67.9724 23.1817 68.6382 23.8898C69.2898 24.5838 70.1946 25.1153 71.3296 25.4738C72.2982 25.7793 73.4544 25.9523 74.7718 25.9912C74.9577 25.9965 75.1454 26 75.3366 26C75.5173 26 76.0555 25.9965 76.2291 25.9912C77.4721 25.9506 78.5681 25.7669 79.4906 25.4438C80.5725 25.0641 81.4242 24.5061 82.0191 23.7821C82.63 23.0404 82.9399 22.403 82.9399 21.4053V21.3911C82.9399 20.1392 82.522 19.3057 81.7004 18.6117C80.916 17.9513 79.6411 17.501 77.9094 17.2749L73.8581 16.8564C73.2508 16.7893 72.7568 16.6816 72.392 16.5386C72.0644 16.4097 71.8307 16.2543 71.6926 16.0759C71.5634 15.9064 71.5032 15.5621 71.5032 15.3219V15.3078C71.5032 14.9758 71.6058 14.5591 71.8254 14.326C72.0644 14.0717 72.4398 13.8704 72.9374 13.7256C73.4704 13.5702 74.0246 13.4925 74.8178 13.4925C76.0573 13.4925 77.0489 13.6744 77.7625 14.0346C78.4229 14.3666 78.77 14.9352 78.8532 15.495L78.9045 15.8199H82.5858L82.5468 15.3007L82.5486 15.2972Z" fill="white"/>
<path d="M17.1755 17.9601H17.1666C17.0816 15.9223 16.3822 14.1759 15.1374 12.8974C13.6873 11.407 11.4066 10.6195 8.77012 10.6195C6.48242 10.6195 4.52937 11.5713 3.55904 12.6414V6H0V25.608H3.55904V24.2059C4.84455 25.3696 6.76041 25.9594 8.89053 25.9594C11.1818 25.9594 13.6784 25.4049 15.1392 23.8916C16.3805 22.606 17.0799 20.8702 17.1666 18.8642H17.1737V18.6188L17.1755 18.421V17.9601ZM8.52931 23.1852C7.48462 23.1852 6.69844 22.9928 5.88216 22.5972C4.32574 21.8432 3.56081 20.1939 3.56081 18.3927C3.56081 16.2207 4.80205 14.1388 6.8454 13.6691C7.40317 13.5419 7.8901 13.4766 8.53108 13.4766C10.0291 13.4766 11.2916 13.9251 12.1804 14.7763C13.0658 15.6221 13.5368 16.9871 13.5403 18.4139C13.5315 21.2675 11.5182 23.1852 8.53108 23.1852H8.52931Z" fill="white"/>
<path d="M101.709 18.4069V17.9725H101.697C101.594 16.0388 100.854 14.2712 99.6001 12.9769C98.0897 11.4176 95.6692 10.5947 93.054 10.5947C90.4387 10.5947 88.1457 11.4159 86.6406 12.968C85.3799 14.2677 84.6362 16.0371 84.5335 17.9725H84.5229L84.5193 18.2179V18.8766H84.5317C84.638 20.7819 85.3817 22.2847 86.6406 23.5755C87.9367 24.9034 89.8508 25.6998 91.9916 25.9099C92.0146 25.9117 92.0376 25.9152 92.0624 25.917C92.1916 25.9294 92.3227 25.9382 92.4537 25.9453C92.4874 25.947 92.5192 25.9506 92.5529 25.9523C92.7175 25.9612 92.884 25.9664 93.0522 25.9664C93.0717 25.9664 93.0894 25.9664 93.1071 25.9664C93.2541 25.9647 93.5214 25.9612 93.6666 25.9541C93.725 25.9506 93.7817 25.9453 93.8384 25.9417C93.9446 25.9347 94.0508 25.9276 94.1553 25.9188C94.1996 25.9152 94.2403 25.9099 94.2846 25.9046C94.405 25.8923 94.5236 25.8799 94.6423 25.8623C94.6546 25.8623 94.6653 25.8587 94.6777 25.857C96.6236 25.5833 98.3784 24.8098 99.5824 23.5755C100.894 22.2317 101.647 20.6354 101.702 18.6382L101.705 18.4528V18.4104L101.709 18.4069ZM98.1623 18.979V18.9878C97.9074 21.46 95.8569 23.1499 93.0557 23.1923C90.2528 23.1499 88.3192 21.4582 88.0642 18.9843C87.9934 18.4174 88.0182 17.4868 88.2377 16.7681V16.7628L88.2413 16.7575L88.2537 16.7169C88.8026 14.7092 90.4759 13.4148 93.054 13.4148C95.6321 13.4148 97.4541 14.7286 97.9888 16.7664V16.7717L97.9924 16.777C98.2102 17.4904 98.2349 18.4192 98.1641 18.9808L98.1623 18.979Z" fill="white"/>
<path d="M118.369 12.3818C117.287 11.2746 115.405 10.7148 113.491 10.7148C112.2 10.7148 110.883 10.8243 109.117 11.7372C108.531 12.041 107.91 12.5513 107.488 12.9998V10.9885H103.878V25.6256H107.488V18.0607C107.488 17.2343 107.664 16.4008 108.011 15.7969C108.356 15.1983 109.063 14.5873 109.691 14.2642C110.853 13.6638 111.951 13.5207 112.809 13.5207C114.006 13.5207 114.791 13.8351 115.379 14.4531C115.97 15.0765 116.39 16.0212 116.39 17.2626V25.6274H120V16.9765C120 15.0358 119.451 13.489 118.369 12.3835V12.3818Z" fill="white"/>
<path d="M47.7425 22.8073C46.6978 23.0793 45.809 23.0952 45.5947 23.0952H45.4672C43.6488 23.0952 43.6576 22.3729 43.6576 21.7443V13.964H48.4136V11.0044H43.6576V6H40.0986V11.0026H36.281V13.9622H40.0986V22.041C40.0986 23.3812 40.5696 24.1829 41.4992 24.9034C42.4093 25.6097 43.7214 25.9664 45.3999 25.9664C45.4035 25.9664 45.407 25.9664 45.4141 25.9664C45.6301 25.9629 48.125 25.917 49.3822 25.3166L49.6761 25.1683L48.0666 22.7226L47.7425 22.8073Z" fill="white"/>
<path d="M22.8788 18.8925H35.8525V18.6346C35.8525 18.5428 35.849 18.4563 35.8472 18.4086C35.7923 16.5986 35.4417 14.5838 33.7383 12.8939C32.2616 11.4318 29.7065 10.593 27.3568 10.593C25.8482 10.593 24.499 10.8649 23.3463 11.4017C22.9018 11.6083 22.4786 11.8626 22.0873 12.154C21.935 12.267 21.8005 12.3765 21.6765 12.486C21.3578 12.765 21.0621 13.0793 20.7947 13.4219C20.7292 13.5049 20.6655 13.5914 20.6053 13.6761C20.3521 14.0346 20.1307 14.416 19.9484 14.8098C19.511 15.7528 19.2525 16.8405 19.1958 17.9689H19.187L19.1834 18.2144V18.873H19.1958C19.1958 18.8942 19.1994 18.9136 19.1994 18.9348L19.2064 19.0408C19.21 19.0902 19.2118 19.1414 19.2171 19.1909C19.2206 19.2403 19.2259 19.288 19.233 19.3375L19.2454 19.4469C19.2489 19.484 19.2525 19.5211 19.2578 19.5582C19.2649 19.6165 19.2737 19.6747 19.2844 19.733L19.2985 19.8301C19.3021 19.8601 19.3074 19.8919 19.3127 19.9219C19.3251 19.9961 19.3392 20.0685 19.3552 20.1391L19.3693 20.2098C19.3729 20.2327 19.3782 20.2575 19.3835 20.2822C19.403 20.374 19.426 20.4658 19.4473 20.5471L19.4543 20.5788C19.4596 20.5983 19.4632 20.6195 19.4685 20.6389C19.4933 20.7342 19.5216 20.8296 19.5482 20.9179L19.5553 20.9426C19.5588 20.9567 19.5641 20.9726 19.5694 20.9885C19.6031 21.0962 19.6403 21.2004 19.6668 21.2781L19.6845 21.3276C19.7199 21.4229 19.7571 21.5218 19.8032 21.6331L19.8173 21.6666C19.8598 21.769 19.9059 21.8697 19.9607 21.9862L19.9661 21.9986C20.0156 22.1045 20.0688 22.2087 20.1272 22.3147L20.1307 22.3217C21.48 24.8292 24.0864 25.9629 27.4702 25.9629C30.8539 25.9629 33.8162 24.9334 35.4842 22.523L35.656 22.2741L33.0371 20.6283L32.8654 20.8119C31.5232 22.2476 30.4219 23.1905 27.4702 23.1905C27.456 23.1905 27.4401 23.1905 27.4259 23.1905H27.3675C26.1528 23.1729 25.4374 22.8391 24.6123 22.2246C24.5521 22.1787 24.499 22.1381 24.4441 22.0922C24.3874 22.0445 24.3361 22.0004 24.2847 21.9527C24.2334 21.905 24.1873 21.8609 24.1431 21.8167L24.1342 21.8079C24.0829 21.7549 24.0404 21.7108 23.9979 21.6648L23.9872 21.6542C23.9377 21.5977 23.8987 21.5536 23.8598 21.5059L23.8509 21.4953C23.812 21.4476 23.7748 21.4 23.7394 21.3523L23.7216 21.3276C23.6862 21.2799 23.6544 21.234 23.6207 21.1845L23.6012 21.1527C23.5694 21.1051 23.5393 21.0592 23.5109 21.0115L23.4897 20.9726C23.4614 20.925 23.4348 20.879 23.41 20.8314L23.3852 20.7837C23.3604 20.7378 23.3374 20.6919 23.3144 20.6459L23.2843 20.5824L23.279 20.5718C23.2613 20.5329 23.2436 20.4958 23.2259 20.457L23.1922 20.374C23.1763 20.3352 23.1603 20.2981 23.1462 20.261C23.1409 20.2469 23.1373 20.2345 23.132 20.2221L23.1108 20.1603L23.109 20.155C23.0984 20.1233 23.086 20.0915 23.0754 20.0597C23.07 20.0456 23.0665 20.0314 23.063 20.0191V20.012L23.0382 19.9396L23.0346 19.929C23.0275 19.9043 23.0187 19.8796 23.0116 19.8548C23.0063 19.8354 23.001 19.816 22.9974 19.7966L22.978 19.7206C22.9709 19.6942 22.9638 19.6694 22.9585 19.6429C22.9532 19.6218 22.9496 19.5988 22.9443 19.5758L22.9266 19.4928C22.9213 19.4681 22.916 19.4469 22.9125 19.4275C22.9071 19.3975 22.9018 19.3657 22.8965 19.3357C22.8965 19.3357 22.8753 19.1803 22.8753 19.0072V18.8889L22.8788 18.8925ZM23.3268 15.7793C23.4313 15.5568 23.5552 15.3449 23.6951 15.1506C23.7323 15.0994 23.773 15.0447 23.8173 14.9899C23.8899 14.8999 23.966 14.8116 24.0475 14.7268C24.1271 14.6438 24.2121 14.5626 24.3007 14.4884C24.3573 14.4408 24.4122 14.3948 24.4671 14.3542C24.4919 14.3366 24.5167 14.3171 24.5415 14.2995C24.7416 14.1547 24.9611 14.0258 25.1948 13.9163C25.2604 13.8863 25.3276 13.8563 25.3949 13.828C26.0536 13.5596 26.475 13.4219 27.3586 13.4219C29.0567 13.4219 30.4644 14.0929 31.3214 15.3113C31.5498 15.6362 31.7569 16.1854 31.9004 16.5863C31.9163 16.6286 31.9305 16.671 31.9446 16.7099H23.063C23.07 16.6746 23.0789 16.6322 23.0877 16.5863C23.1426 16.3337 23.2471 15.9594 23.3303 15.7828L23.3268 15.7793Z" fill="white"/>
</svg>
